<svg viewBox="0 0 51 51" fill="none" xmlns="http://www.w3.org/2000/svg">
    <a class="svg-fallback">
        <g clip-path="url(#clip0)">
        <path d="M50.1139 31.1698C46.7764 44.5656 33.2118 52.7115 19.818 49.3698C6.43054 46.0573 -1.72363 32.4636 1.6222 19.0886C4.95554 5.68231 18.5243 -2.46977 31.9097 0.865649C45.3055 4.2094 53.4555 17.7719 50.1139 31.174V31.1698V31.1698ZM36.8847 21.5594C37.3847 18.2469 34.8555 16.4552 31.3847 15.2469L32.5097 10.7615L29.7701 10.074L28.6764 14.4636C27.9576 14.2823 27.2076 14.1156 26.4597 13.9427L27.5555 9.51148L24.8055 8.82398L23.6805 13.3344C23.0868 13.1948 22.5035 13.0594 21.9305 12.9177L18.1493 11.9802L17.4201 14.9115C17.4201 14.9115 19.4514 15.3802 19.4097 15.4031C20.5243 15.6865 20.7222 16.4156 20.691 16.999L17.6139 29.3323C17.4576 29.6781 17.1139 30.1781 16.3347 29.9865C16.366 30.0281 14.3347 29.4865 14.3347 29.4865L12.9597 32.6323L16.5222 33.5198L18.4597 34.024L17.3347 38.5865L20.0847 39.2677L21.2097 34.7469C21.9597 34.9552 22.6785 35.1427 23.3972 35.3156L22.3347 39.8031L25.0847 40.4906L26.2201 35.9281C30.8868 36.8177 34.4076 36.4636 35.8868 32.2323C37.0743 28.8219 35.8243 26.8573 33.3514 25.574C35.1305 25.1719 36.4764 23.9906 36.8514 21.5531H36.8722L36.8847 21.5594ZM30.6139 30.3511C29.7722 33.7677 24.0368 31.9136 22.1764 31.4552L23.6764 25.4136C25.543 25.8927 31.5035 26.8094 30.6139 30.3511V30.3511ZM31.468 21.5177C30.6972 24.6219 25.9222 23.049 24.3743 22.6636L25.7368 17.1636C27.2868 17.5386 32.2722 18.2552 31.466 21.5052V21.5177H31.468Z"/>
        </g>
        <defs>
        <clipPath id="clip0">
        <rect x="0.868042" y="0.119385" width="50" height="50" fill="white"/>
        </clipPath>
        </defs>
    </a>
     <image v-pre src="{{ asset('images/bitcoin_icon.png') }}" xlink:href="" class="w-full"/>
</svg>
