<svg viewBox="0 0 190 40" fill="none" xmlns="http://www.w3.org/2000/svg">
    <a class="svg-fallback">
        <path d="M39.4259 24.7625C36.8133 35.2419 26.1994 41.6195 15.7188 39.0062C5.24248 36.3935 -1.13513 25.7791 1.47875 15.3003C4.09019 4.81968 14.7041 -1.55854 25.1816 1.05412C35.6616 3.66678 42.0386 14.2825 39.4259 24.7625Z" fill="#F7931A"/>
        <path d="M29.0737 17.2436C29.4631 14.6407 27.4813 13.2415 24.7714 12.308L25.6505 8.78209L23.5042 8.24721L22.6484 11.6802C22.0842 11.5396 21.5047 11.407 20.9288 11.2755L21.7908 7.81991L19.6457 7.28503L18.7661 10.8097C18.2991 10.7034 17.8406 10.5982 17.3956 10.4876L17.398 10.4766L14.4381 9.73754L13.8672 12.0299C13.8672 12.0299 15.4596 12.3948 15.426 12.4174C16.2952 12.6345 16.4524 13.2097 16.4261 13.6657L15.4248 17.6825C15.4847 17.6978 15.5623 17.7198 15.6479 17.754C15.5764 17.7363 15.5 17.7167 15.4211 17.6978L14.0176 23.3247C13.9112 23.5888 13.6416 23.9849 13.034 23.8345C13.0554 23.8657 11.474 23.4452 11.474 23.4452L10.4085 25.9019L13.2015 26.5982C13.7211 26.7284 14.2303 26.8647 14.7316 26.9931L13.8434 30.5594L15.9872 31.0943L16.8668 27.5659C17.4524 27.7248 18.0209 27.8715 18.5772 28.0097L17.7006 31.5215L19.8469 32.0564L20.7351 28.4969C24.3949 29.1895 27.1469 28.9101 28.3053 25.6C29.2387 22.9347 28.2588 21.3973 26.3333 20.3948C27.7356 20.0714 28.7919 19.149 29.0737 17.2436V17.2436ZM24.1699 24.12C23.5067 26.7853 19.0192 25.3444 17.5643 24.9832L18.7429 20.2585C20.1977 20.6216 24.8631 21.3405 24.1699 24.12V24.12ZM24.8338 17.2051C24.2286 19.6295 20.4936 18.3977 19.282 18.0957L20.3506 13.8106C21.5621 14.1126 25.464 14.6762 24.8338 17.2051V17.2051Z" fill="white"/>
        <path d="M58.2146 12.3068C59.8009 12.3068 61.1714 12.591 62.3231 13.1491C63.4803 13.7127 64.4351 14.472 65.2011 15.4268C65.9566 16.3865 66.519 17.5083 66.8821 18.7938C67.2428 20.083 67.4237 21.4688 67.4237 22.9524C67.4237 25.2313 67.0062 27.3843 66.1632 29.4138C65.3203 31.4463 64.1765 33.2093 62.7217 34.7131C61.268 36.215 59.5515 37.3991 57.5721 38.2739C55.5958 39.1492 53.4471 39.5869 51.1401 39.5869C50.8418 39.5869 50.3173 39.5784 49.5764 39.5631C48.8356 39.5478 47.984 39.4714 47.0304 39.3424C46.0707 39.2085 45.0559 39.0105 43.9843 38.7452C42.9133 38.4848 41.8962 38.1198 40.9383 37.6565L49.5037 1.66601L57.1754 0.477051L54.1086 13.2488C54.7651 12.9529 55.4265 12.7237 56.0867 12.5568C56.7475 12.3924 57.4566 12.3068 58.2146 12.3068V12.3068ZM51.7795 33.5009C52.9349 33.5009 54.0236 33.2166 55.0463 32.6585C56.072 32.0998 56.9572 31.3455 57.6987 30.4059C58.4402 29.4621 59.027 28.399 59.4549 27.2113C59.8828 26.0236 60.0992 24.7845 60.0992 23.4953C60.0992 21.9114 59.8345 20.676 59.307 19.7829C58.7794 18.8935 57.8032 18.446 56.3856 18.446C55.921 18.446 55.3226 18.5346 54.5805 18.6929C53.8359 18.861 53.1696 19.2101 52.5724 19.7352L49.3069 33.2986C49.5037 33.3334 49.6779 33.3664 49.8265 33.3976C49.9719 33.4312 50.1327 33.455 50.2929 33.4715C50.4622 33.4905 50.656 33.5003 50.8901 33.5003C51.1242 33.5003 51.417 33.5009 51.7795 33.5009V33.5009Z" fill="#4D4D4D"/>
        <path d="M75.3815 38.8949H68.054L74.2421 12.8557H81.6197L75.3815 38.8949V38.8949ZM78.9472 9.68308C77.9245 9.68308 76.9972 9.37866 76.1744 8.76859C75.3448 8.16219 74.9341 7.22874 74.9341 5.97071C74.9341 5.27872 75.0747 4.62953 75.3534 4.01701C75.6364 3.40572 76.0063 2.8794 76.4696 2.43193C76.9324 1.98814 77.4685 1.63359 78.0773 1.36645C78.6898 1.1036 79.3415 0.972168 80.0359 0.972168C81.058 0.972168 81.9804 1.27659 82.8063 1.88666C83.6291 2.49979 84.0429 3.43323 84.0429 4.68455C84.0429 5.37897 83.9029 6.03061 83.6217 6.6419C83.3424 7.2532 82.9725 7.77952 82.5092 8.22698C82.0501 8.67139 81.5091 9.02472 80.9015 9.28941C80.2884 9.55654 79.6392 9.68308 78.9472 9.68308V9.68308Z" fill="#4D4D4D"/>
        <path d="M88.0402 6.36932L95.7149 5.18036L93.8303 12.8557H102.05L100.566 18.8941H92.3956L90.2194 28.0023C90.0189 28.7616 89.9052 29.4707 89.8734 30.1296C89.8374 30.7917 89.9211 31.3602 90.1192 31.8388C90.316 32.3187 90.6699 32.6885 91.1834 32.9501C91.6945 33.2161 92.4262 33.3499 93.3859 33.3499C94.1763 33.3499 94.9465 33.2747 95.6911 33.1256C96.4314 32.9789 97.1814 32.7747 97.9406 32.5076L98.4871 38.1535C97.4969 38.5166 96.4246 38.8289 95.2693 39.0918C94.1121 39.3583 92.7422 39.4867 91.159 39.4867C88.8825 39.4867 87.1177 39.1486 85.8603 38.4756C84.6047 37.7977 83.7171 36.8716 83.1859 35.6991C82.662 34.5309 82.4279 33.1843 82.4933 31.667C82.5612 30.1461 82.7904 28.5476 83.1859 26.8641L88.0402 6.36932Z" fill="#4D4D4D"/>
        <path d="M101.726 28.4999C101.726 26.2571 102.089 24.142 102.815 22.1621C103.539 20.1802 104.583 18.4472 105.937 16.96C107.286 15.48 108.93 14.3076 110.865 13.4469C112.79 12.5911 114.946 12.1595 117.322 12.1595C118.81 12.1595 120.138 12.3001 121.307 12.5819C122.48 12.8661 123.542 13.2335 124.503 13.6944L121.975 19.4406C121.315 19.1728 120.63 18.9369 119.922 18.7229C119.212 18.5047 118.347 18.3996 117.323 18.3996C114.877 18.3996 112.944 19.2425 111.505 20.923C110.071 22.6046 109.349 24.8682 109.349 27.7077C109.349 29.3906 109.712 30.7513 110.441 31.7924C111.166 32.8334 112.505 33.3512 114.45 33.3512C115.41 33.3512 116.336 33.2509 117.223 33.0553C118.116 32.8572 118.906 32.6078 119.601 32.3132L120.148 38.2036C119.221 38.563 118.199 38.8876 117.078 39.1719C115.954 39.4463 114.617 39.5888 113.066 39.5888C111.019 39.5888 109.286 39.2892 107.868 38.6993C106.45 38.1003 105.278 37.305 104.355 36.2976C103.427 35.2877 102.761 34.1085 102.349 32.7551C101.937 31.403 101.726 29.9823 101.726 28.4999V28.4999Z" fill="#4D4D4D"/>
        <path d="M134.276 39.5875C132.528 39.5875 131.008 39.321 129.72 38.7934C128.435 38.2659 127.371 37.5256 126.529 36.5659C125.686 35.611 125.055 34.4795 124.623 33.1756C124.191 31.8724 123.983 30.4291 123.983 28.8477C123.983 26.8641 124.301 24.881 124.945 22.9035C125.586 20.9217 126.536 19.141 127.794 17.5584C129.043 15.9733 130.582 14.6773 132.396 13.6669C134.207 12.6631 136.29 12.1582 138.63 12.1582C140.347 12.1582 141.858 12.4253 143.165 12.9529C144.465 13.4792 145.536 14.2256 146.382 15.1804C147.22 16.1402 147.856 17.2668 148.284 18.5725C148.715 19.8733 148.928 21.3202 148.928 22.9029C148.928 24.8804 148.614 26.8634 147.99 28.8471C147.366 30.821 146.44 32.6059 145.217 34.1922C143.997 35.7749 142.471 37.0702 140.639 38.0764C138.809 39.0826 136.686 39.5875 134.276 39.5875V39.5875ZM137.939 18.3989C136.852 18.3989 135.892 18.7143 135.07 19.3372C134.245 19.9675 133.551 20.7597 132.993 21.7151C132.428 22.6749 132.009 23.7214 131.726 24.859C131.446 25.9991 131.308 27.0768 131.308 28.1007C131.308 29.753 131.575 31.0398 132.098 31.9659C132.63 32.8871 133.584 33.3505 134.971 33.3505C136.061 33.3505 137.016 33.0375 137.843 32.4079C138.664 31.7825 139.358 30.9897 139.921 30.0324C140.482 29.0775 140.904 28.028 141.187 26.8885C141.464 25.7521 141.605 24.6683 141.605 23.6462C141.605 21.9982 141.34 20.7083 140.811 19.7835C140.283 18.8622 139.325 18.3989 137.939 18.3989V18.3989Z" fill="#4D4D4D"/>
        <path d="M156.915 38.8949H149.581L155.77 12.8557H163.151L156.915 38.8949V38.8949ZM160.475 9.68308C159.453 9.68308 158.526 9.37866 157.705 8.76859C156.88 8.16219 156.465 7.22874 156.465 5.97071C156.465 5.27872 156.608 4.62953 156.887 4.01701C157.166 3.40572 157.539 2.8794 158.002 2.43193C158.462 1.98814 159.003 1.63359 159.611 1.36645C160.22 1.1036 160.871 0.972168 161.563 0.972168C162.588 0.972168 163.513 1.27659 164.337 1.88666C165.162 2.49979 165.578 3.43323 165.578 4.68455C165.578 5.37897 165.43 6.03061 165.153 6.6419C164.877 7.2532 164.504 7.77952 164.043 8.22698C163.578 8.67139 163.044 9.02472 162.435 9.28941C161.821 9.55654 161.171 9.68308 160.475 9.68308V9.68308Z" fill="#4D4D4D"/>
        <path d="M168.429 14.0422C168.985 13.8796 169.606 13.684 170.282 13.4713C170.959 13.2586 171.717 13.0605 172.563 12.882C173.4 12.698 174.344 12.5488 175.383 12.4333C176.421 12.3153 177.605 12.2579 178.92 12.2579C182.784 12.2579 185.448 13.3833 186.919 15.6273C188.389 17.8714 188.643 20.9425 187.689 24.8352L184.319 38.8949H176.943L180.21 25.1311C180.409 24.2716 180.565 23.4409 180.681 22.6291C180.798 21.8246 180.791 21.1155 180.655 20.5018C180.524 19.8954 180.218 19.399 179.741 19.0145C179.258 18.6361 178.527 18.446 177.536 18.446C176.581 18.446 175.609 18.5487 174.617 18.7467L169.814 38.8943H162.435L168.429 14.0422V14.0422Z" fill="#4D4D4D"/>
    </a>
    <image v-pre src="{{ asset('images/bitcoin.png') }}" xlink:href="" class="w-full"/>
</svg>
