<svg viewBox="0 0 51 50" fill="none" xmlns="http://www.w3.org/2000/svg">
    <a class="svg-fallback">
        <path d="M38.7229 6.235C38.2029 3.25 38.0479 3.125 34.9479 3.125H28.8479C26.3479 3.13 25.9279 3.525 25.6479 6.215C20.4729 7.43 18.9879 9.15 18.8679 14.385C18.8079 14.38 18.7479 14.37 18.6829 14.37C16.9829 14.33 15.2779 14.335 13.5779 14.355C11.8829 14.375 11.6179 15.68 11.4829 17.005C7.78285 18.185 6.64785 19.77 6.64785 23.705C6.64785 30.43 6.64285 37.15 6.64785 43.87C6.64785 46.265 7.24285 46.87 9.56785 46.875C13.1229 46.88 16.6879 46.875 20.4629 46.875C20.4479 46.835 20.4429 46.8 20.4329 46.76C20.7979 46.84 21.2279 46.87 21.7579 46.875C28.9529 46.88 36.1479 46.88 43.3429 46.875C43.8779 46.875 44.4079 46.825 45.1079 46.795V14.945C45.1129 9.465 43.7529 7.615 38.7229 6.235V6.235ZM16.2729 39.15C14.0229 39.135 13.3379 39.725 13.2629 41.765C13.2479 42.27 13.2579 42.78 13.2579 43.39H10.0279C9.97785 43.19 9.88785 42.98 9.88785 42.77C9.87785 36.16 9.86285 29.555 9.88285 22.945C9.88785 21.195 10.5929 20.515 12.3229 20.495C14.4479 20.48 16.5779 20.48 18.8579 20.485V25.37C17.6779 25.525 17.4929 26.43 17.5479 27.47C17.5229 28.675 17.6229 29.62 18.8579 29.775V31.28C17.7379 31.43 17.4579 32.285 17.5529 33.445C17.4729 34.63 17.6879 35.5 18.8579 35.66V40.13C18.4979 39.395 17.7479 39.16 16.2729 39.15ZM41.8329 43.39H36.1579C36.1579 42.275 36.1729 41.165 36.1529 40.05C36.1129 38.005 35.5079 37.375 33.6029 37.345C32.4479 37.33 31.2929 37.325 30.1379 37.35C28.5329 37.39 27.8779 38.065 27.8129 39.765C27.7729 40.945 27.8029 42.13 27.8029 43.415H22.1729C22.1429 42.815 22.0929 42.265 22.0929 41.715C22.0879 32.475 22.0829 23.235 22.0929 13.995C22.0929 10.995 23.3029 9.69 26.1679 9.675C30.0679 9.65 33.9729 9.65 37.8729 9.68C40.6229 9.695 41.8929 11.04 41.8929 13.895C41.9029 23.25 41.8979 32.6 41.8929 41.955C41.8929 42.385 41.8579 42.83 41.8329 43.39ZM13.2179 29.81C14.8479 29.835 14.9479 28.78 14.8529 27.605C14.9379 26.33 14.7679 25.36 13.2679 25.355C11.6829 25.35 11.5679 26.39 11.5679 27.645C11.5629 28.86 11.7329 29.785 13.2179 29.81ZM13.2679 31.265C11.7279 31.26 11.5529 32.275 11.5579 33.555C11.5629 34.78 11.7579 35.67 13.2179 35.7C14.8479 35.735 14.9479 34.685 14.8479 33.445C14.9679 32.215 14.7279 31.27 13.2679 31.265ZM27.3679 14.18C25.2929 14.185 25.0379 14.51 25.0379 17.045C25.0429 19.525 25.2829 19.8 27.4729 19.79C29.4929 19.775 29.6979 19.52 29.6929 17.02C29.6979 14.44 29.4779 14.175 27.3679 14.18ZM27.3129 28.84C25.2829 28.85 25.0329 29.17 25.0379 31.76C25.0429 34.12 25.3279 34.45 27.3629 34.45C29.5029 34.45 29.6929 34.215 29.6929 31.625C29.6929 29.015 29.5329 28.83 27.3129 28.84ZM29.6929 24.45C29.6979 21.67 29.6229 21.58 27.4679 21.57C25.1629 21.565 25.0379 21.695 25.0379 24.27C25.0329 26.94 25.1279 27.05 27.3779 27.05C29.5929 27.055 29.6929 26.945 29.6929 24.45ZM36.6029 14.18C34.5279 14.185 34.2729 14.51 34.2729 17.045C34.2779 19.525 34.5179 19.8 36.7079 19.79C38.7279 19.775 38.9329 19.52 38.9279 17.02C38.9329 14.44 38.7129 14.175 36.6029 14.18ZM36.5479 28.84C34.5179 28.85 34.2679 29.17 34.2729 31.76C34.2779 34.12 34.5629 34.45 36.5979 34.45C38.7379 34.45 38.9279 34.215 38.9279 31.625C38.9279 29.015 38.7679 28.83 36.5479 28.84ZM38.9279 24.45C38.9329 21.67 38.8579 21.58 36.7029 21.57C34.3979 21.565 34.2729 21.695 34.2729 24.27C34.2679 26.94 34.3629 27.05 36.6129 27.05C38.8279 27.055 38.9229 26.945 38.9279 24.45Z"/>
    </a>
    <image v-pre src="{{ asset('images/building-alt.png') }}" xlink:href="" class="w-full"/>
</svg>
