<svg width="51" height="51" viewBox="0 0 51 51" fill="none" xmlns="http://www.w3.org/2000/svg">
    <a class="svg-fallback">
        <path d="M35.8343 10.3319C32.6143 13.6069 29.3893 16.8919 26.1243 20.2119C25.6943 20.6469 25.0043 20.6519 24.5743 20.2119C21.3243 16.9119 18.0893 13.6219 14.8493 10.3319C14.4193 9.89687 13.7293 9.90187 13.3043 10.3369C12.5193 11.1469 11.7493 11.9519 10.9493 12.7769C10.5243 13.2169 10.5343 13.9269 10.9593 14.3619C14.1143 17.5719 17.3543 20.8669 20.6393 24.2119C21.0693 24.6469 21.0643 25.3519 20.6393 25.7919C17.3793 29.1119 14.1293 32.4169 10.9043 35.6969C10.4793 36.1319 10.4793 36.8369 10.9143 37.2669L13.3043 39.6619C13.7343 40.0919 14.4343 40.0919 14.8593 39.6569L24.5693 29.7919C24.9993 29.3569 25.6893 29.3569 26.1193 29.7919C29.3543 33.0819 32.5793 36.3619 35.8293 39.6669C36.2593 40.1019 36.9543 40.1069 37.3793 39.6719C38.1793 38.8619 38.9643 38.0619 39.7593 37.2569C40.1893 36.8219 40.1893 36.1119 39.7643 35.6769C36.5743 32.4269 33.3393 29.1319 30.0543 25.7869C29.6243 25.3519 29.6243 24.6419 30.0543 24.2069C33.3143 20.8869 36.5593 17.5819 39.7793 14.2969C40.2093 13.8619 40.2043 13.1569 39.7743 12.7219L37.3843 10.3169C36.9593 9.89187 36.2643 9.89687 35.8343 10.3319Z"/>
    </a>
    <image v-pre src="{{ asset('images/close.png') }}" xlink:href="" class="w-full"/>
</svg>
