<svg width="51" height="51" viewBox="0 0 51 51" fill="none" xmlns="http://www.w3.org/2000/svg">
    <a class="svg-fallback">
        <path d="M47.4213 43.1719C47.3363 42.5969 47.1063 42.0419 46.8463 41.5219C46.3313 40.5069 45.7563 39.5319 45.2113 38.5569C39.5663 28.3969 33.9313 18.2369 28.2863 8.08687C27.9713 7.49687 27.5863 6.92687 27.1113 6.45187C26.2213 5.56187 25.0613 5.54687 24.1163 6.39687C23.7013 6.78187 23.3263 7.28687 23.0563 7.78687C16.7913 19.0219 10.5413 30.2719 4.29629 41.5119C4.12629 41.8269 3.98129 42.1569 3.88129 42.4869C3.32129 44.1069 4.04129 45.4369 5.70129 45.8419C6.13129 45.9569 6.60629 46.0019 7.04629 46.0019H43.9963C44.3563 46.0019 44.7113 45.9869 45.0563 45.9469C46.6163 45.7519 47.6063 44.6469 47.4213 43.1719ZM25.5363 15.5969C26.4113 15.5969 27.2863 15.6519 28.1613 15.7819L27.8163 32.1219C27.0413 32.2669 26.2963 32.3219 25.5813 32.3219C24.8213 32.3219 24.0613 32.2669 23.3013 32.1219L22.9663 15.7819C23.8413 15.6569 24.6863 15.5969 25.5363 15.5969ZM28.0113 39.8169C27.1663 39.9469 26.3513 40.0169 25.5763 40.0169C24.7613 40.0169 23.9263 39.9469 23.1113 39.8169C22.9663 38.9869 22.9113 38.1669 22.9113 37.3669C22.9113 36.5619 22.9663 35.7469 23.1113 34.9019C23.9263 34.7719 24.7313 34.7019 25.5313 34.7019C26.3463 34.7019 27.1663 34.7719 28.0113 34.9019C28.1563 35.7469 28.2113 36.5519 28.2113 37.3369C28.2163 38.1719 28.1563 38.9869 28.0113 39.8169Z"/>
    </a>
    <image v-pre src="{{ asset('images/error.png') }}" xlink:href="" class="w-full"/>
</svg>
