<svg viewBox="0 0 50 50" fill="none" xmlns="http://www.w3.org/2000/svg">
    <a class="svg-fallback">
        <g clip-path="url(#clip0)">
        <path d="M48.625 42L37.155 30.525C35.445 33.185 33.185 35.445 30.525 37.155L42 48.625C43.83 50.46 46.8 50.46 48.625 48.625C50.46 46.8 50.46 43.83 48.625 42ZM37.5 18.75C37.5 8.395 29.105 0 18.75 0C8.395 0 0 8.395 0 18.75C0 29.105 8.395 37.5 18.75 37.5C29.105 37.5 37.5 29.105 37.5 18.75ZM18.75 32.81C10.995 32.81 4.685 26.505 4.685 18.75C4.685 10.995 10.995 4.685 18.75 4.685C26.505 4.685 32.815 10.995 32.815 18.75C32.815 26.505 26.505 32.81 18.75 32.81ZM7.815 18.75H10.94C10.94 14.44 14.44 10.94 18.75 10.94V7.815C12.72 7.815 7.815 12.72 7.815 18.75Z"/>
        </g>
        <defs>
        <clipPath id="clip0">
        <rect width="50" height="50" fill="white"/>
        </clipPath>
        </defs>
    </a>
    <image v-pre src="{{ asset('images/search.png') }}" xlink:href="" class="w-full"/>
</svg>
