<svg width="51" height="51" viewBox="0 0 51 51" fill="none" xmlns="http://www.w3.org/2000/svg">
    <a class="svg-fallback">
        <path d="M34.4794 14.9619C34.2894 14.7819 33.9944 14.7919 33.8144 14.9819C29.6594 19.3919 25.5144 23.7869 21.3544 28.2019C21.1744 28.3919 20.8844 28.3969 20.6994 28.2119L16.2794 23.7919C16.0944 23.6069 15.7994 23.6069 15.6144 23.7919L12.9394 26.4669C12.7544 26.6519 12.7544 26.9469 12.9394 27.1319L20.8444 35.0369C21.0294 35.2219 21.3244 35.2169 21.4994 35.0269C26.7544 29.4519 32.0244 23.8669 37.3044 18.2669C37.4844 18.0769 37.4744 17.7819 37.2844 17.6019C36.3444 16.7169 35.4144 15.8419 34.4794 14.9619ZM25.1144 3.12689C13.0344 3.12689 3.23944 12.9219 3.23944 25.0019C3.23944 37.0819 13.0344 46.8769 25.1144 46.8769C37.1944 46.8769 46.9894 37.0819 46.9894 25.0019C46.9894 12.9219 37.1944 3.12689 25.1144 3.12689ZM25.1144 43.4319C14.9394 43.4319 6.68444 35.1769 6.68444 25.0019C6.68444 14.8269 14.9394 6.57189 25.1144 6.57189C35.2894 6.57189 43.5444 14.8269 43.5444 25.0019C43.5444 35.1769 35.2894 43.4319 25.1144 43.4319Z"/>
    </a>
    <image v-pre src="{{ asset('images/success.png') }}" xlink:href="" class="w-full"/>
</svg>
 