<?xml version="1.0" standalone="no"?>
<!DOCTYPE svg PUBLIC "-//W3C//DTD SVG 20010904//EN"
 "http://www.w3.org/TR/2001/REC-SVG-20010904/DTD/svg10.dtd">
<svg version="1.0" xmlns="http://www.w3.org/2000/svg"
 width="260.000000pt" height="260.000000pt" viewBox="0 0 260.000000 260.000000"
 preserveAspectRatio="xMidYMid meet">
<metadata>
Created by potrace 1.11, written by Peter Selinger 2001-2013
</metadata>
<g transform="translate(0.000000,260.000000) scale(0.100000,-0.100000)"
fill="#000000" stroke="none">
<path d="M1105 2250 c-412 -91 -709 -405 -769 -815 -12 -81 -13 -201 -2 -266
20 -117 30 -153 70 -247 84 -201 256 -386 447 -482 72 -37 187 -78 239 -86 19
-3 53 -10 75 -15 63 -14 280 -3 365 19 381 96 662 396 731 782 16 89 14 260
-5 346 -85 399 -375 684 -779 768 -94 19 -274 17 -372 -4z m211 -331 c24 -6
44 -16 44 -23 0 -6 -8 -45 -18 -87 l-18 -75 43 -10 c42 -10 44 -10 50 15 16
70 33 134 37 138 3 3 96 -16 103 -22 2 -1 -6 -34 -17 -73 -11 -39 -20 -78 -20
-85 0 -8 19 -22 43 -33 73 -32 117 -66 144 -111 49 -84 15 -205 -70 -254 l-39
-21 30 -18 c53 -33 77 -78 76 -145 -2 -108 -54 -195 -139 -231 -41 -17 -164
-23 -221 -10 l-32 7 -22 -90 -22 -89 -51 15 c-29 8 -53 16 -54 17 -1 0 5 26
13 56 27 104 28 120 4 120 -12 0 -30 4 -40 10 -20 11 -23 5 -51 -105 -6 -27
-14 -53 -15 -56 -4 -8 -85 10 -97 21 -4 3 1 44 12 90 11 46 19 85 18 86 -1 0
-45 11 -97 24 -52 12 -98 26 -103 30 -4 3 4 32 19 64 19 41 30 56 41 52 39
-15 89 -17 100 -4 6 7 39 124 73 260 47 189 59 251 51 266 -6 11 -31 25 -58
32 -26 7 -51 16 -55 19 -4 3 0 30 8 59 12 41 19 52 32 48 26 -8 186 -46 195
-46 4 0 7 7 7 16 0 20 40 154 47 154 2 0 24 -5 49 -11z"/>
<path d="M1297 1603 c-3 -5 -17 -53 -30 -106 l-25 -98 23 -9 c41 -16 150 -26
182 -18 63 16 93 95 57 146 -18 26 -72 55 -132 72 -24 6 -49 13 -57 16 -7 3
-15 2 -18 -3z"/>
<path d="M1186 1174 c-16 -63 -26 -117 -24 -120 3 -2 38 -12 79 -20 100 -21
181 -15 214 16 34 32 42 82 19 117 -28 43 -54 60 -134 86 -138 45 -122 53
-154 -79z"/>
</g>
</svg>
