<?xml version="1.0" standalone="no"?>
<!DOCTYPE svg PUBLIC "-//W3C//DTD SVG 20010904//EN"
 "http://www.w3.org/TR/2001/REC-SVG-20010904/DTD/svg10.dtd">
<svg version="1.0" xmlns="http://www.w3.org/2000/svg"
 width="261.000000pt" height="261.000000pt" viewBox="0 0 261.000000 261.000000"
 preserveAspectRatio="xMidYMid meet">
<metadata>
Created by potrace 1.11, written by Peter Selinger 2001-2013
</metadata>
<g transform="translate(0.000000,261.000000) scale(0.100000,-0.100000)"
fill="#000000" stroke="none">
<path d="M598 2161 c-23 -19 -24 -22 -23 -169 2 -214 -21 -196 264 -197 l231
0 1 -25 c0 -14 2 -305 2 -647 2 -581 3 -623 20 -640 15 -16 39 -18 208 -18
180 0 191 1 202 20 9 15 13 198 17 665 l5 645 227 0 c203 1 230 3 245 18 16
15 18 40 19 173 2 141 0 158 -17 175 -18 18 -46 19 -698 19 -652 0 -679 -1
-703 -19z"/>
</g>
</svg>
